HIERARCHY
ROOT pelvis
{
	OFFSET 0.000000 0.000000 0.697506
	CHANNELS 6 Xposition Yposition Zposition Xrotation Yrotation Zrotation
	JOINT spine
	{
		OFFSET 0.000000 0.000000 0.000000
		CHANNELS 6 Xposition Yposition Zposition Xrotation Yrotation Zrotation
		JOINT spine.001
		{
			OFFSET 0.000000 -0.012044 0.229818
			CHANNELS 3 Xrotation Yrotation Zrotation
			JOINT neck
			{
				OFFSET 0.000000 0.028046 0.228418
				CHANNELS 6 Xposition Yposition Zposition Xrotation Yrotation Zrotation
				JOINT face
				{
					OFFSET 0.000000 0.002402 0.137628
					CHANNELS 6 Xposition Yposition Zposition Xrotation Yrotation Zrotation
					End Site
					{
						OFFSET 0.000000 -0.024765 -0.006803
					}
				}
			}
			JOINT shoulder.L
			{
				OFFSET 0.000000 0.028046 0.228418
				CHANNELS 6 Xposition Yposition Zposition Yrotation Xrotation Zrotation
				JOINT upper_arm.L
				{
					OFFSET 0.137894 0.000000 0.000000
					CHANNELS 6 Xposition Yposition Zposition Xrotation Yrotation Zrotation
					JOINT forearm.L
					{
						OFFSET 0.215118 0.000101 0.000839
						CHANNELS 6 Xposition Yposition Zposition Xrotation Yrotation Zrotation
						End Site
						{
							OFFSET 0.188199 -0.003192 -0.001153
						}
					}
				}
			}
			JOINT shoulder.R
			{
				OFFSET 0.000000 0.028046 0.228418
				CHANNELS 6 Xposition Yposition Zposition Yrotation Xrotation Zrotation
				JOINT upper_arm.R
				{
					OFFSET -0.137894 0.000000 0.000000
					CHANNELS 6 Xposition Yposition Zposition Xrotation Yrotation Zrotation
					JOINT forearm.R
					{
						OFFSET -0.223398 0.000101 0.000839
						CHANNELS 6 Xposition Yposition Zposition Xrotation Yrotation Zrotation
						End Site
						{
							OFFSET -0.201250 -0.003420 -0.001154
						}
					}
				}
			}
		}
	}
	JOINT pelvis.L
	{
		OFFSET 0.000000 0.000000 0.000000
		CHANNELS 6 Xposition Yposition Zposition Yrotation Xrotation Zrotation
		End Site
		{
			OFFSET 0.092256 0.000000 0.000000
		}
	}
	JOINT pelvis.R
	{
		OFFSET 0.000000 0.000000 0.000000
		CHANNELS 6 Xposition Yposition Zposition Yrotation Xrotation Zrotation
		End Site
		{
			OFFSET -0.092257 0.000000 0.000000
		}
	}
	JOINT thigh.L
	{
		OFFSET 0.092256 0.000000 0.000000
		CHANNELS 6 Xposition Yposition Zposition Xrotation Yrotation Zrotation
		JOINT shin.L
		{
			OFFSET 0.017101 0.000000 -0.326309
			CHANNELS 6 Xposition Yposition Zposition Xrotation Yrotation Zrotation
			JOINT foot.L
			{
				OFFSET 0.015690 0.000000 -0.299389
				CHANNELS 3 Xrotation Yrotation Zrotation
				End Site
				{
					OFFSET 0.015611 -0.159173 -0.066839
				}
			}
			JOINT heel.02.L
			{
				OFFSET 0.015690 0.000000 -0.299389
				CHANNELS 3 Xrotation Yrotation Zrotation
				End Site
				{
					OFFSET -0.075241 0.030160 -0.074989
				}
			}
		}
	}
	JOINT thigh.R
	{
		OFFSET -0.092257 0.000000 0.000000
		CHANNELS 6 Xposition Yposition Zposition Xrotation Yrotation Zrotation
		JOINT shin.R
		{
			OFFSET -0.016922 0.000000 -0.322887
			CHANNELS 6 Xposition Yposition Zposition Xrotation Yrotation Zrotation
			JOINT foot.R
			{
				OFFSET -0.016152 0.000000 -0.308203
				CHANNELS 3 Xrotation Yrotation Zrotation
				End Site
				{
					OFFSET -0.015851 -0.161616 -0.067865
				}
			}
			JOINT heel.02.R
			{
				OFFSET -0.016152 0.000000 -0.308203
				CHANNELS 3 Xrotation Yrotation Zrotation
				End Site
				{
					OFFSET 0.086585 0.030160 -0.070178
				}
			}
		}
	}
}
MOTION
Frames: 11
Frame Time: 0.041667
-0.046407 -0.088989 0.677806 -0.000000 0.000000 -7.433867 -0.000000 0.000000 0.000000 -4.181528 -1.400964 -0.124812 9.962836 0.721857 5.889652 0.000000 0.028046 0.228417 10.751280 -6.602719 -4.122763 -0.000000 0.002402 0.137628 -4.069551 -0.000003 0.000004 -0.000000 0.028046 0.228417 -2.377911 0.006059 0.291914 0.137894 -0.000000 0.000000 -2.699527 71.868254 3.660889 0.215118 0.000101 0.000839 10.489407 29.887887 -36.741145 -0.000000 0.028046 0.228417 -2.323728 0.005786 0.285233 -0.137894 0.000000 -0.000000 -21.713366 -61.767771 -35.372337 -0.223398 0.000101 0.000839 22.626649 -37.144922 60.340439 -0.000000 -0.000000 0.000000 -1.585065 -0.000001 -0.000072 -0.000000 -0.000000 0.000000 -1.585028 -0.000000 0.000000 0.092221 0.000000 0.002552 13.758158 3.591810 0.291530 0.017101 -0.000000 -0.326309 -0.755433 -5.607356 -0.076391 -16.356676 -0.736460 -1.635941 4.092369 -28.632822 -19.362994 -0.092221 -0.000000 -0.002552 8.257104 -6.754705 0.054814 -0.016922 0.000000 -0.322887 6.075626 1.069229 -0.375269 -17.370438 -3.085844 8.065840 1.554504 36.593063 28.951758 
-0.048172 -0.088653 0.677514 -0.000000 0.000000 -7.882866 0.000000 0.000000 -0.000000 -4.159405 -1.337429 -0.118891 9.962440 0.726056 5.924118 -0.000000 0.028046 0.228418 10.911361 -6.631948 -3.450972 -0.000000 0.002402 0.137628 -4.125771 -0.000000 -0.000002 0.000000 0.028046 0.228417 -2.415709 0.006252 0.296522 0.137894 0.000000 0.000000 -2.227875 72.115801 2.998282 0.215118 0.000101 0.000839 10.415494 29.737045 -36.680681 -0.000000 0.028046 0.228418 -2.361470 0.005974 0.289882 -0.137894 0.000000 0.000000 -21.862259 -62.101487 -35.387490 -0.223398 0.000101 0.000839 22.031924 -36.231186 60.334339 0.000000 -0.000000 -0.000000 -1.666832 0.000001 0.000068 0.000000 -0.000000 -0.000000 -1.666832 -0.000000 0.000000 0.092217 -0.000000 0.002683 13.884337 3.579991 0.295673 0.017101 -0.000000 -0.326309 -0.936879 -5.683828 -0.095363 -16.167567 -0.914746 -1.307953 4.287109 -28.306302 -19.294460 -0.092217 -0.000000 -0.002684 8.375910 -6.880400 0.064875 -0.016922 0.000000 -0.322887 5.788107 1.106666 -0.359367 -17.099117 -3.263259 8.351706 1.644658 36.678471 29.172981 
-0.049617 -0.088255 0.677215 -0.000000 0.000000 -8.256917 0.000000 0.000000 -0.000000 -4.106779 -1.305519 -0.115449 9.962909 0.721917 5.890286 0.000000 0.028046 0.228418 10.993937 -6.608387 -2.748980 -0.000000 0.002402 0.137628 -4.088295 0.000000 0.000002 0.000000 0.028046 0.228418 -2.421219 0.006281 0.297220 0.137894 0.000000 -0.000000 -0.476881 72.421834 0.596077 0.215118 0.000101 0.000839 10.197135 29.579029 -36.125683 0.000000 0.028046 0.228418 -2.367030 0.006003 0.290579 -0.137894 0.000000 -0.000000 -21.989816 -62.457053 -35.354640 -0.223398 0.000101 0.000839 21.460862 -35.327514 60.364754 0.000000 0.000000 0.000000 -1.744344 0.000001 0.000046 0.000000 0.000000 0.000000 -1.744306 -0.000000 0.000000 0.092214 0.000000 0.002808 13.988434 3.594492 0.296129 0.017101 -0.000000 -0.326309 -1.152258 -5.817053 -0.118618 -15.925332 -1.044771 -1.049765 4.503894 -27.970306 -19.240844 -0.092214 -0.000000 -0.002808 8.466237 -7.010143 0.075251 -0.016922 -0.000000 -0.322887 5.533082 1.198150 -0.347911 -16.783093 -3.408064 8.585596 1.701179 36.784114 29.378686 
-0.050806 -0.087705 0.676927 -0.000000 0.000000 -8.607269 -0.000000 -0.000000 0.000000 -4.009921 -1.294140 -0.113338 9.963073 0.719539 5.870688 -0.000000 0.028046 0.228418 11.026056 -6.571163 -2.567780 0.000000 0.002402 0.137628 -4.084890 -0.000001 -0.000002 -0.000000 0.028046 0.228418 -2.407510 0.006208 0.295476 0.137894 0.000000 -0.000000 1.975231 72.676047 -2.732125 0.215118 0.000101 0.000839 9.857494 29.351830 -35.222691 -0.000000 0.028046 0.228418 -2.353320 0.005932 0.288860 -0.137894 0.000000 0.000000 -22.151477 -62.800693 -35.381589 -0.223398 0.000101 0.000839 20.858243 -34.267254 60.564674 -0.000000 -0.000000 0.000000 -1.815859 0.000001 0.000064 -0.000000 -0.000000 0.000000 -1.815859 -0.000000 0.000001 0.092210 0.000000 0.002923 14.032673 3.623088 0.293550 0.017101 -0.000000 -0.326309 -1.266213 -5.955827 -0.131876 -15.783833 -1.156754 -0.837195 4.655248 -27.708518 -19.185590 -0.092210 -0.000000 -0.002923 8.479657 -7.131240 0.084416 -0.016922 0.000000 -0.322887 5.397376 1.308835 -0.344565 -16.550663 -3.535704 8.794941 1.676366 36.934542 29.542187 
-0.052071 -0.087332 0.676715 -0.000000 0.000000 -8.970979 -0.000000 0.000000 -0.000000 -3.912689 -1.286907 -0.111606 9.963196 0.718735 5.864228 0.000000 0.028046 0.228418 11.055131 -6.533218 -2.793298 -0.000000 0.002402 0.137628 -4.190947 -0.000000 0.000007 0.000000 0.028046 0.228418 -2.395910 0.006150 0.294114 0.137894 -0.000000 -0.000000 4.165446 72.758925 -5.692064 0.215118 0.000101 0.000839 9.482099 29.114361 -34.184677 0.000000 0.028046 0.228418 -2.341728 0.005874 0.287414 -0.137894 -0.000000 0.000000 -22.381365 -63.119622 -35.527745 -0.223398 0.000101 0.000839 20.229535 -33.077602 60.918689 -0.000000 0.000000 -0.000000 -1.894598 -0.000000 0.000006 -0.000000 0.000000 -0.000000 -1.894598 -0.000000 -0.000001 0.092206 0.000000 0.003050 14.063588 3.617344 0.294912 0.017101 -0.000000 -0.326309 -1.279571 -6.027378 -0.134066 -15.773757 -1.273337 -0.639036 4.704906 -27.536831 -19.106908 -0.092206 0.000000 -0.003050 8.486245 -7.263281 0.094355 -0.016922 -0.000000 -0.322887 5.316182 1.448235 -0.345818 -16.423610 -3.667669 9.014642 1.592005 37.115654 29.673156 
-0.053627 -0.087599 0.676622 -0.000000 0.000000 -9.309399 -0.000000 -0.000000 -0.000000 -3.878166 -1.291014 -0.111570 9.964141 0.708687 5.781840 -0.000000 0.028046 0.228417 11.126540 -6.460096 -3.010558 -0.000000 0.002402 0.137628 -4.348424 -0.000002 0.000006 -0.000000 0.028046 0.228418 -2.391932 0.006126 0.293484 0.137894 -0.000000 0.000000 5.587867 72.682324 -7.625741 0.215118 0.000101 0.000839 9.155271 28.975855 -33.177897 -0.000000 0.028046 0.228418 -2.337692 0.005853 0.286881 -0.137894 0.000000 0.000000 -22.687568 -63.401839 -35.811279 -0.223398 0.000101 0.000839 19.699295 -32.000280 61.358082 -0.000000 -0.000000 -0.000000 -1.976195 -0.000000 0.000009 -0.000000 -0.000000 -0.000000 -1.976195 -0.000000 0.000000 0.092202 -0.000000 0.003181 14.143396 3.545930 0.305477 0.017101 -0.000000 -0.326309 -1.258920 -6.018378 -0.131799 -15.826349 -1.387082 -0.456979 4.675567 -27.439885 -19.012639 -0.092202 -0.000000 -0.003181 8.605162 -7.410368 0.106837 -0.016922 -0.000000 -0.322887 5.144225 1.602602 -0.341526 -16.335154 -3.794004 9.226259 1.502469 37.295855 29.798278 
-0.055366 -0.088457 0.676579 -0.000000 0.000000 -9.586372 0.000000 0.000000 0.000000 -3.911240 -1.319429 -0.114408 9.966445 0.685945 5.595712 0.000000 0.028046 0.228418 11.280473 -6.347473 -2.949461 -0.000000 0.002402 0.137628 -4.495446 -0.000001 -0.000004 -0.000000 0.028046 0.228418 -2.392622 0.006131 0.293616 0.137894 -0.000000 0.000000 6.305190 72.559599 -8.615215 0.215118 0.000101 0.000839 8.966236 28.989819 -32.475627 -0.000000 0.028046 0.228418 -2.338431 0.005857 0.286987 -0.137894 -0.000000 0.000000 -23.022152 -63.616607 -36.178166 -0.223398 0.000101 0.000839 19.372191 -31.231443 61.824188 0.000000 -0.000000 0.000000 -2.036608 -0.000001 -0.000031 0.000000 -0.000000 0.000000 -2.036570 -0.000000 -0.000001 0.092198 -0.000000 0.003279 14.249165 3.440864 0.320934 0.017101 0.000000 -0.326309 -1.183948 -5.993261 -0.123691 -15.917180 -1.498269 -0.286685 4.615258 -27.425936 -18.950061 -0.092198 -0.000000 -0.003278 8.838697 -7.531944 0.119226 -0.016922 -0.000000 -0.322887 4.858866 1.694614 -0.326446 -16.239412 -3.897618 9.400330 1.425526 37.474598 29.938816 
-0.057038 -0.089421 0.676464 -0.000000 0.000000 -9.841110 0.000000 -0.000000 -0.000000 -3.959780 -1.364965 -0.118943 9.968664 0.663134 5.409077 -0.000000 0.028046 0.228417 11.530671 -6.255819 -2.607613 0.000000 0.002402 0.137628 -4.668016 0.000002 -0.000007 -0.000000 0.028046 0.228418 -2.400509 0.006174 0.294638 0.137894 -0.000000 -0.000000 6.540184 72.484242 -8.945838 0.215118 0.000101 0.000839 8.960966 29.110242 -32.313014 -0.000000 0.028046 0.228418 -2.346320 0.005898 0.287991 -0.137894 -0.000000 0.000000 -23.310105 -63.728110 -36.539429 -0.223398 0.000101 0.000839 19.256851 -30.802189 62.276271 0.000000 -0.000000 -0.000000 -2.067240 0.000001 0.000053 0.000000 -0.000000 -0.000000 -2.067203 -0.000000 -0.000001 0.092196 -0.000000 0.003328 14.322912 3.356633 0.333207 0.017101 0.000000 -0.326309 -1.008974 -6.005376 -0.105518 -16.083528 -1.627481 -0.101009 4.575218 -27.528970 -18.988045 -0.092196 -0.000000 -0.003328 9.075003 -7.580060 0.126275 -0.016922 0.000000 -0.322887 4.577206 1.657417 -0.306022 -16.151362 -3.987690 9.552209 1.346988 37.666755 30.097078 
-0.058568 -0.090276 0.676260 -0.000000 0.000000 -10.125306 0.000000 0.000000 -0.000000 -3.985659 -1.409587 -0.123151 9.969541 0.653645 5.331429 0.000000 0.028046 0.228418 11.811006 -6.224948 -2.154338 0.000000 0.002402 0.137628 -4.878416 0.000002 0.000002 -0.000000 0.028046 0.228418 -2.417380 0.006259 0.296669 0.137894 0.000000 0.000000 6.441844 72.465718 -8.815293 0.215118 0.000101 0.000839 9.076158 29.231092 -32.584985 0.000000 0.028046 0.228418 -2.363241 0.005982 0.290034 -0.137894 0.000000 0.000000 -23.557671 -63.736682 -36.906449 -0.223398 0.000101 0.000839 19.323461 -30.668468 62.699709 0.000000 0.000000 -0.000000 -2.088687 -0.000001 -0.000043 0.000000 0.000000 -0.000000 -2.088687 -0.000000 0.000000 0.092195 -0.000000 0.003362 14.381361 3.296652 0.342158 0.017101 0.000000 -0.326309 -0.799108 -6.026425 -0.083716 -16.324169 -1.768677 0.089126 4.586076 -27.737458 -19.145850 -0.092195 -0.000000 -0.003362 9.248983 -7.560997 0.127153 -0.016922 -0.000000 -0.322887 4.383446 1.524881 -0.288001 -16.112923 -4.074015 9.698165 1.290910 37.830123 30.246509 
-0.060078 -0.091286 0.676074 -0.000000 0.000000 -10.420355 -0.000000 0.000000 -0.000000 -3.995514 -1.447907 -0.126622 9.969388 0.655406 5.345884 0.000000 0.028046 0.228417 11.984874 -6.204128 -1.789283 -0.000000 0.002402 0.137628 -5.009361 0.000001 -0.000004 0.000000 0.028046 0.228418 -2.433670 0.006345 0.298701 0.137894 0.000000 -0.000000 6.113465 72.459551 -8.370340 0.215118 0.000101 0.000839 9.190690 29.276810 -32.941760 0.000000 0.028046 0.228417 -2.379537 0.006065 0.292009 -0.137894 0.000000 0.000000 -23.858867 -63.689164 -37.391071 -0.223398 0.000101 0.000839 19.522528 -30.748777 63.096236 -0.000000 -0.000000 0.000000 -2.125360 -0.000002 -0.000091 -0.000000 -0.000000 0.000000 -2.125396 -0.000000 0.000000 0.092193 -0.000000 0.003421 14.483599 3.225130 0.353715 0.017101 -0.000000 -0.326309 -0.649284 -6.010494 -0.067931 -16.578672 -1.875054 0.216976 4.630417 -27.943221 -19.331686 -0.092193 -0.000000 -0.003422 9.398190 -7.533320 0.126917 -0.016922 0.000000 -0.322887 4.255593 1.398562 -0.274917 -16.155224 -4.138699 9.807283 1.326759 37.872555 30.348098 
-0.061616 -0.092642 0.675974 -0.000000 0.000000 -10.659170 -0.000000 0.000000 0.000000 -4.005061 -1.488797 -0.130326 9.969528 0.654180 5.335865 0.000000 0.028046 0.228417 11.963554 -6.112309 -1.612631 -0.000000 0.002402 0.137628 -4.943714 -0.000002 0.000005 -0.000000 0.028046 0.228417 -2.432755 0.006341 0.298585 0.137894 0.000000 -0.000000 5.652510 72.421766 -7.749406 0.215118 0.000101 0.000839 9.240992 29.248434 -33.156183 -0.000000 0.028046 0.228417 -2.378618 0.006061 0.291932 -0.137894 0.000000 0.000000 -24.241557 -63.637474 -38.001004 -0.223398 0.000101 0.000839 19.750484 -30.890821 63.455026 0.000000 0.000000 0.000000 -2.180369 -0.000000 0.000013 0.000000 0.000000 0.000000 -2.180406 -0.000000 0.000002 0.092190 0.000000 0.003510 14.620431 3.138782 0.368182 0.017101 -0.000000 -0.326309 -0.535761 -5.985811 -0.055935 -16.800578 -1.912327 0.235854 4.659688 -28.032201 -19.421050 -0.092190 -0.000000 -0.003510 9.557497 -7.539313 0.129585 -0.016922 -0.000000 -0.322887 4.157210 1.332951 -0.266188 -16.261248 -4.163407 9.848380 1.481323 37.757832 30.385381 
